# xmcd
#
# Track frame offsets:
#	150
#	11535
#	22160
#	34065
#	46595
#	57472
#	68865
#	82070
#	95037
#	105030
#	114445
#	123700
#	135305
#	147595
#	159482
#	169575
#	178557
#	190242
#	200192
#	212405
#	224777
#	236087
#	249465
#	259952
#	271865
#	280900
#	291497
#	302797
#	314532
#
# Disc length: 4345 seconds
#
# Revision: 0
# Processed by: cddbd v1.4PL0 Copyright (c) Steve Scherf et al.
# Submitted via: audiograbber 1.80
#
DISCID=bd10f71d
DTITLE=shirley and lee - the sweethearts of the blues disc 1
DYEAR=1900
DGENRE=
TTITLE0=sweethearts 1952
TTITLE1=i'm gone 1952
TTITLE2=the real thing 1997
TTITLE3=korea 1975
TTITLE4=baby 1952
TTITLE5=shirley, come back to me 1952
TTITLE6=shirley's back (alt) 1997
TTITLE7=shirley's back 1953
TTITLE8=why did i 1953
TTITLE9=so in love (alt) 1997
TTITLE10=so in love 1953
TTITLE11=the reason why 1975
TTITLE12=the time has come 1997
TTITLE13=i love you so 1997
TTITLE14=the proposal 1953
TTITLE15=two happy people 1953
TTITLE16=lee goofed 1953
TTITLE17=every fool has his day 1997
TTITLE18=down in my heart 1997
TTITLE19=keep on 1954
TTITLE20=confessin' 1954
TTITLE21=when the sun goes down 1954
TTITLE22=tryin' to fool me 1954
TTITLE23=rumors blue 1997
TTITLE24=comin' over 1954
TTITLE25=takes money 1954
TTITLE26=i didn't want you 1975
TTITLE27=you'd be thinking of me 1955
TTITLE28=i'll thrill you 1957
EXTD=
EXTT0=
EXTT1=
EXTT2=
EXTT3=
EXTT4=
EXTT5=
EXTT6=
EXTT7=
EXTT8=
EXTT9=
EXTT10=
EXTT11=
EXTT12=
EXTT13=
EXTT14=
EXTT15=
EXTT16=
EXTT17=
EXTT18=
EXTT19=
EXTT20=
EXTT21=
EXTT22=
EXTT23=
EXTT24=
EXTT25=
EXTT26=
EXTT27=
EXTT28=
PLAYORDER=
